<mxfile host="app.diagrams.net" modified="2024-01-06T03:01:44.433Z" agent="Mozilla/5.0 (Macintosh; Intel Mac OS X 10_15_7) AppleWebKit/537.36 (KHTML, like Gecko) Chrome/119.0.0.0 Safari/537.36" etag="5S0dq8Nq70KQK56NtOf6" version="22.1.17" type="github" pages="3">
  <diagram name="第 1 页" id="80tLAemX2LjPjK77r8w_">
    <mxGraphModel dx="1026" dy="651" grid="1" gridSize="10" guides="1" tooltips="1" connect="1" arrows="1" fold="1" page="1" pageScale="1" pageWidth="827" pageHeight="1169" math="0" shadow="0">
      <root>
        <mxCell id="0" />
        <mxCell id="1" parent="0" />
        <mxCell id="SiPf87VK308XJuag_e49-6" style="edgeStyle=orthogonalEdgeStyle;rounded=0;orthogonalLoop=1;jettySize=auto;html=1;exitX=1;exitY=0.5;exitDx=0;exitDy=0;entryX=0;entryY=0.5;entryDx=0;entryDy=0;" parent="1" source="SiPf87VK308XJuag_e49-1" target="SiPf87VK308XJuag_e49-5" edge="1">
          <mxGeometry relative="1" as="geometry" />
        </mxCell>
        <mxCell id="SiPf87VK308XJuag_e49-1" value="outliter&lt;br&gt;threshold" style="rhombus;whiteSpace=wrap;html=1;" parent="1" vertex="1">
          <mxGeometry x="370" y="180" width="80" height="80" as="geometry" />
        </mxCell>
        <mxCell id="SiPf87VK308XJuag_e49-9" style="edgeStyle=orthogonalEdgeStyle;rounded=0;orthogonalLoop=1;jettySize=auto;html=1;exitX=1;exitY=0.5;exitDx=0;exitDy=0;entryX=0;entryY=0.5;entryDx=0;entryDy=0;" parent="1" source="SiPf87VK308XJuag_e49-2" target="SiPf87VK308XJuag_e49-7" edge="1">
          <mxGeometry relative="1" as="geometry" />
        </mxCell>
        <mxCell id="SiPf87VK308XJuag_e49-2" value="outlier&lt;br&gt;cluster" style="rounded=1;whiteSpace=wrap;html=1;fillColor=#f8cecc;strokeColor=#b85450;" parent="1" vertex="1">
          <mxGeometry x="110" y="190" width="80" height="60" as="geometry" />
        </mxCell>
        <mxCell id="SiPf87VK308XJuag_e49-5" value="normal&lt;br&gt;cluster" style="rounded=1;whiteSpace=wrap;html=1;fillColor=#dae8fc;strokeColor=#6c8ebf;" parent="1" vertex="1">
          <mxGeometry x="530" y="190" width="80" height="60" as="geometry" />
        </mxCell>
        <mxCell id="SiPf87VK308XJuag_e49-8" style="edgeStyle=orthogonalEdgeStyle;rounded=0;orthogonalLoop=1;jettySize=auto;html=1;exitX=1;exitY=0.5;exitDx=0;exitDy=0;" parent="1" source="SiPf87VK308XJuag_e49-7" target="SiPf87VK308XJuag_e49-1" edge="1">
          <mxGeometry relative="1" as="geometry" />
        </mxCell>
        <mxCell id="SiPf87VK308XJuag_e49-7" value="mini&lt;br&gt;threshold" style="rhombus;whiteSpace=wrap;html=1;" parent="1" vertex="1">
          <mxGeometry x="230" y="180" width="80" height="80" as="geometry" />
        </mxCell>
        <mxCell id="SiPf87VK308XJuag_e49-10" value="局部密度阈值" style="text;html=1;strokeColor=none;fillColor=none;align=center;verticalAlign=middle;whiteSpace=wrap;rounded=0;" parent="1" vertex="1">
          <mxGeometry x="240" y="260" width="60" height="30" as="geometry" />
        </mxCell>
        <mxCell id="SiPf87VK308XJuag_e49-11" value="全局密度阈值" style="text;html=1;strokeColor=none;fillColor=none;align=center;verticalAlign=middle;whiteSpace=wrap;rounded=0;" parent="1" vertex="1">
          <mxGeometry x="380" y="260" width="60" height="30" as="geometry" />
        </mxCell>
      </root>
    </mxGraphModel>
  </diagram>
  <diagram id="leG4RklCSrZbAKqoeShU" name="微簇更新">
    <mxGraphModel dx="1026" dy="651" grid="1" gridSize="10" guides="1" tooltips="1" connect="1" arrows="1" fold="1" page="1" pageScale="1" pageWidth="827" pageHeight="1169" math="0" shadow="0">
      <root>
        <mxCell id="0" />
        <mxCell id="1" parent="0" />
        <mxCell id="V2um1TlxDLekbjGzMTH9-9" style="edgeStyle=orthogonalEdgeStyle;rounded=0;orthogonalLoop=1;jettySize=auto;html=1;exitX=0.5;exitY=1;exitDx=0;exitDy=0;" edge="1" parent="1" source="V2um1TlxDLekbjGzMTH9-3" target="V2um1TlxDLekbjGzMTH9-4">
          <mxGeometry relative="1" as="geometry" />
        </mxCell>
        <mxCell id="V2um1TlxDLekbjGzMTH9-3" value="输入：新数据点s&lt;sub&gt;i&lt;/sub&gt;,MC,MC&lt;sub&gt;potential&lt;/sub&gt;,RadiusMin,RadiusMax" style="rounded=1;whiteSpace=wrap;html=1;" vertex="1" parent="1">
          <mxGeometry x="230" y="150" width="240" height="70" as="geometry" />
        </mxCell>
        <mxCell id="V2um1TlxDLekbjGzMTH9-11" style="edgeStyle=orthogonalEdgeStyle;rounded=0;orthogonalLoop=1;jettySize=auto;html=1;exitX=1;exitY=0.5;exitDx=0;exitDy=0;entryX=0;entryY=0.5;entryDx=0;entryDy=0;" edge="1" parent="1" source="V2um1TlxDLekbjGzMTH9-4" target="V2um1TlxDLekbjGzMTH9-13">
          <mxGeometry relative="1" as="geometry">
            <mxPoint x="550" y="355" as="targetPoint" />
          </mxGeometry>
        </mxCell>
        <mxCell id="V2um1TlxDLekbjGzMTH9-12" value="Y" style="edgeLabel;html=1;align=center;verticalAlign=middle;resizable=0;points=[];" vertex="1" connectable="0" parent="V2um1TlxDLekbjGzMTH9-11">
          <mxGeometry x="-0.1238" y="4" relative="1" as="geometry">
            <mxPoint as="offset" />
          </mxGeometry>
        </mxCell>
        <mxCell id="V2um1TlxDLekbjGzMTH9-25" style="edgeStyle=orthogonalEdgeStyle;rounded=0;orthogonalLoop=1;jettySize=auto;html=1;exitX=0.5;exitY=1;exitDx=0;exitDy=0;entryX=0.5;entryY=0;entryDx=0;entryDy=0;" edge="1" parent="1" source="V2um1TlxDLekbjGzMTH9-4" target="V2um1TlxDLekbjGzMTH9-24">
          <mxGeometry relative="1" as="geometry" />
        </mxCell>
        <mxCell id="V2um1TlxDLekbjGzMTH9-26" value="N" style="edgeLabel;html=1;align=center;verticalAlign=middle;resizable=0;points=[];" vertex="1" connectable="0" parent="V2um1TlxDLekbjGzMTH9-25">
          <mxGeometry x="-0.2" y="-1" relative="1" as="geometry">
            <mxPoint as="offset" />
          </mxGeometry>
        </mxCell>
        <mxCell id="V2um1TlxDLekbjGzMTH9-4" value="distance(s&lt;sub&gt;i&lt;/sub&gt;,O&#39;)&amp;lt;radius(O&#39;)?&lt;br&gt;O&#39;∈MC&lt;sub style=&quot;border-color: var(--border-color);&quot;&gt;potential&lt;/sub&gt;" style="rhombus;whiteSpace=wrap;html=1;" vertex="1" parent="1">
          <mxGeometry x="262.5" y="260" width="175" height="120" as="geometry" />
        </mxCell>
        <mxCell id="V2um1TlxDLekbjGzMTH9-15" style="edgeStyle=orthogonalEdgeStyle;rounded=0;orthogonalLoop=1;jettySize=auto;html=1;exitX=0.5;exitY=1;exitDx=0;exitDy=0;entryX=0.5;entryY=0;entryDx=0;entryDy=0;fillColor=#dae8fc;strokeColor=#6c8ebf;" edge="1" parent="1" source="V2um1TlxDLekbjGzMTH9-13" target="V2um1TlxDLekbjGzMTH9-16">
          <mxGeometry relative="1" as="geometry">
            <mxPoint x="625" y="440" as="targetPoint" />
          </mxGeometry>
        </mxCell>
        <mxCell id="V2um1TlxDLekbjGzMTH9-20" style="edgeStyle=orthogonalEdgeStyle;rounded=0;orthogonalLoop=1;jettySize=auto;html=1;exitX=1;exitY=0.5;exitDx=0;exitDy=0;entryX=0.5;entryY=0;entryDx=0;entryDy=0;fillColor=#dae8fc;strokeColor=#6c8ebf;" edge="1" parent="1" source="V2um1TlxDLekbjGzMTH9-13" target="V2um1TlxDLekbjGzMTH9-19">
          <mxGeometry relative="1" as="geometry" />
        </mxCell>
        <mxCell id="V2um1TlxDLekbjGzMTH9-13" value="更新O&#39;，LD&lt;sub&gt;new&lt;/sub&gt;=LD+1" style="rounded=0;whiteSpace=wrap;html=1;align=left;fillColor=#d5e8d4;strokeColor=#82b366;" vertex="1" parent="1">
          <mxGeometry x="495" y="290.63" width="130" height="58.75" as="geometry" />
        </mxCell>
        <mxCell id="V2um1TlxDLekbjGzMTH9-18" style="edgeStyle=orthogonalEdgeStyle;rounded=0;orthogonalLoop=1;jettySize=auto;html=1;exitX=0.5;exitY=1;exitDx=0;exitDy=0;entryX=0.5;entryY=0;entryDx=0;entryDy=0;fillColor=#dae8fc;strokeColor=#6c8ebf;" edge="1" parent="1" source="V2um1TlxDLekbjGzMTH9-16" target="V2um1TlxDLekbjGzMTH9-17">
          <mxGeometry relative="1" as="geometry" />
        </mxCell>
        <mxCell id="V2um1TlxDLekbjGzMTH9-35" value="Y" style="edgeLabel;html=1;align=center;verticalAlign=middle;resizable=0;points=[];" vertex="1" connectable="0" parent="V2um1TlxDLekbjGzMTH9-18">
          <mxGeometry x="-0.3333" y="1" relative="1" as="geometry">
            <mxPoint as="offset" />
          </mxGeometry>
        </mxCell>
        <mxCell id="V2um1TlxDLekbjGzMTH9-16" value="R/2&amp;lt;(s&lt;sub&gt;i&lt;/sub&gt;,c)&amp;lt;R?" style="rhombus;whiteSpace=wrap;html=1;fillColor=#d5e8d4;strokeColor=#82b366;" vertex="1" parent="1">
          <mxGeometry x="490" y="380" width="130" height="90" as="geometry" />
        </mxCell>
        <mxCell id="V2um1TlxDLekbjGzMTH9-17" value="使用等式1,2更新O&#39;的中心c和半径R" style="rounded=0;whiteSpace=wrap;html=1;align=center;fillColor=#d5e8d4;strokeColor=#82b366;" vertex="1" parent="1">
          <mxGeometry x="485" y="500" width="140" height="60" as="geometry" />
        </mxCell>
        <mxCell id="V2um1TlxDLekbjGzMTH9-23" style="edgeStyle=orthogonalEdgeStyle;rounded=0;orthogonalLoop=1;jettySize=auto;html=1;exitX=0.5;exitY=1;exitDx=0;exitDy=0;entryX=0.5;entryY=0;entryDx=0;entryDy=0;fillColor=#dae8fc;strokeColor=#6c8ebf;" edge="1" parent="1" source="V2um1TlxDLekbjGzMTH9-19" target="V2um1TlxDLekbjGzMTH9-22">
          <mxGeometry relative="1" as="geometry" />
        </mxCell>
        <mxCell id="V2um1TlxDLekbjGzMTH9-19" value="LD(O&#39;)&amp;gt;=MinThreshold?" style="rhombus;whiteSpace=wrap;html=1;fillColor=#dae8fc;strokeColor=#6c8ebf;" vertex="1" parent="1">
          <mxGeometry x="640" y="370" width="130" height="110" as="geometry" />
        </mxCell>
        <mxCell id="V2um1TlxDLekbjGzMTH9-22" value="将O&#39;y移动至MC中" style="rounded=0;whiteSpace=wrap;html=1;align=center;fillColor=#dae8fc;strokeColor=#6c8ebf;" vertex="1" parent="1">
          <mxGeometry x="640" y="500" width="130" height="60" as="geometry" />
        </mxCell>
        <mxCell id="V2um1TlxDLekbjGzMTH9-36" style="edgeStyle=orthogonalEdgeStyle;rounded=0;orthogonalLoop=1;jettySize=auto;html=1;exitX=1;exitY=0.5;exitDx=0;exitDy=0;entryX=0;entryY=0.75;entryDx=0;entryDy=0;strokeColor=#000000;" edge="1" parent="1" source="V2um1TlxDLekbjGzMTH9-24" target="V2um1TlxDLekbjGzMTH9-13">
          <mxGeometry relative="1" as="geometry" />
        </mxCell>
        <mxCell id="V2um1TlxDLekbjGzMTH9-37" value="Y" style="edgeLabel;html=1;align=center;verticalAlign=middle;resizable=0;points=[];" vertex="1" connectable="0" parent="V2um1TlxDLekbjGzMTH9-36">
          <mxGeometry x="-0.0313" y="2" relative="1" as="geometry">
            <mxPoint as="offset" />
          </mxGeometry>
        </mxCell>
        <mxCell id="V2um1TlxDLekbjGzMTH9-39" style="edgeStyle=orthogonalEdgeStyle;rounded=0;orthogonalLoop=1;jettySize=auto;html=1;exitX=0.5;exitY=1;exitDx=0;exitDy=0;entryX=0.5;entryY=0;entryDx=0;entryDy=0;" edge="1" parent="1" source="V2um1TlxDLekbjGzMTH9-24" target="V2um1TlxDLekbjGzMTH9-38">
          <mxGeometry relative="1" as="geometry" />
        </mxCell>
        <mxCell id="V2um1TlxDLekbjGzMTH9-41" value="N" style="edgeLabel;html=1;align=center;verticalAlign=middle;resizable=0;points=[];" vertex="1" connectable="0" parent="V2um1TlxDLekbjGzMTH9-39">
          <mxGeometry x="-0.1111" relative="1" as="geometry">
            <mxPoint as="offset" />
          </mxGeometry>
        </mxCell>
        <mxCell id="V2um1TlxDLekbjGzMTH9-24" value="distance(s&lt;sub&gt;i&lt;/sub&gt;,O&#39;)&amp;lt;radius(O&#39;)?&lt;br&gt;O&#39;∈MC" style="rhombus;whiteSpace=wrap;html=1;" vertex="1" parent="1">
          <mxGeometry x="257.5" y="430" width="185" height="110" as="geometry" />
        </mxCell>
        <mxCell id="V2um1TlxDLekbjGzMTH9-38" value="创建微簇O&#39;,初始化LD=1,C=O&#39;,R=RadiusMin,EL={},M=0" style="rounded=0;whiteSpace=wrap;html=1;align=left;" vertex="1" parent="1">
          <mxGeometry x="245" y="585" width="210" height="65" as="geometry" />
        </mxCell>
      </root>
    </mxGraphModel>
  </diagram>
  <diagram id="H8m-0zj3fYraWk-j8wtl" name="宏簇更新">
    <mxGraphModel dx="1026" dy="651" grid="1" gridSize="10" guides="1" tooltips="1" connect="1" arrows="1" fold="1" page="1" pageScale="1" pageWidth="827" pageHeight="1169" math="0" shadow="0">
      <root>
        <mxCell id="0" />
        <mxCell id="1" parent="0" />
        <mxCell id="1sqJRC-_gy79cd_bisz6-3" style="edgeStyle=orthogonalEdgeStyle;rounded=0;orthogonalLoop=1;jettySize=auto;html=1;exitX=0.5;exitY=1;exitDx=0;exitDy=0;" edge="1" parent="1" source="1sqJRC-_gy79cd_bisz6-1" target="1sqJRC-_gy79cd_bisz6-2">
          <mxGeometry relative="1" as="geometry" />
        </mxCell>
        <mxCell id="1sqJRC-_gy79cd_bisz6-1" value="输入MC&lt;sub&gt;core&lt;/sub&gt;" style="rounded=1;whiteSpace=wrap;html=1;" vertex="1" parent="1">
          <mxGeometry x="280" y="100" width="140" height="50" as="geometry" />
        </mxCell>
        <mxCell id="1sqJRC-_gy79cd_bisz6-5" style="edgeStyle=orthogonalEdgeStyle;rounded=0;orthogonalLoop=1;jettySize=auto;html=1;exitX=0.5;exitY=1;exitDx=0;exitDy=0;entryX=0.5;entryY=0;entryDx=0;entryDy=0;" edge="1" parent="1" source="1sqJRC-_gy79cd_bisz6-2" target="1sqJRC-_gy79cd_bisz6-4">
          <mxGeometry relative="1" as="geometry" />
        </mxCell>
        <mxCell id="1sqJRC-_gy79cd_bisz6-6" value="Y" style="edgeLabel;html=1;align=center;verticalAlign=middle;resizable=0;points=[];" vertex="1" connectable="0" parent="1sqJRC-_gy79cd_bisz6-5">
          <mxGeometry x="-0.0333" relative="1" as="geometry">
            <mxPoint as="offset" />
          </mxGeometry>
        </mxCell>
        <mxCell id="1sqJRC-_gy79cd_bisz6-2" value="new micro-cluster or the core of O modified?" style="rhombus;whiteSpace=wrap;html=1;" vertex="1" parent="1">
          <mxGeometry x="275" y="200" width="150" height="110" as="geometry" />
        </mxCell>
        <mxCell id="1sqJRC-_gy79cd_bisz6-8" style="edgeStyle=orthogonalEdgeStyle;rounded=0;orthogonalLoop=1;jettySize=auto;html=1;exitX=0.5;exitY=1;exitDx=0;exitDy=0;" edge="1" parent="1" source="1sqJRC-_gy79cd_bisz6-4" target="1sqJRC-_gy79cd_bisz6-7">
          <mxGeometry relative="1" as="geometry" />
        </mxCell>
        <mxCell id="1sqJRC-_gy79cd_bisz6-4" value="for O&#39; in MC&lt;sub&gt;core&lt;/sub&gt;&lt;br&gt;计算d=distance(O,O&#39;)&lt;br&gt;根据等式3计算d&#39;=distance&#39;(O,O&#39;) in MC&lt;sub&gt;core&lt;/sub&gt;" style="rounded=0;whiteSpace=wrap;html=1;" vertex="1" parent="1">
          <mxGeometry x="265" y="370" width="175" height="70" as="geometry" />
        </mxCell>
        <mxCell id="1sqJRC-_gy79cd_bisz6-11" style="edgeStyle=orthogonalEdgeStyle;rounded=0;orthogonalLoop=1;jettySize=auto;html=1;exitX=0.5;exitY=1;exitDx=0;exitDy=0;" edge="1" parent="1" source="1sqJRC-_gy79cd_bisz6-7" target="1sqJRC-_gy79cd_bisz6-10">
          <mxGeometry relative="1" as="geometry" />
        </mxCell>
        <mxCell id="1sqJRC-_gy79cd_bisz6-12" value="Y" style="edgeLabel;html=1;align=center;verticalAlign=middle;resizable=0;points=[];" vertex="1" connectable="0" parent="1sqJRC-_gy79cd_bisz6-11">
          <mxGeometry x="-0.2" y="-2" relative="1" as="geometry">
            <mxPoint as="offset" />
          </mxGeometry>
        </mxCell>
        <mxCell id="1sqJRC-_gy79cd_bisz6-7" value="d&amp;lt;=d&#39;?" style="rhombus;whiteSpace=wrap;html=1;" vertex="1" parent="1">
          <mxGeometry x="277.5" y="480" width="150" height="80" as="geometry" />
        </mxCell>
        <mxCell id="1sqJRC-_gy79cd_bisz6-14" style="edgeStyle=orthogonalEdgeStyle;rounded=0;orthogonalLoop=1;jettySize=auto;html=1;exitX=0.5;exitY=1;exitDx=0;exitDy=0;entryX=0.5;entryY=0;entryDx=0;entryDy=0;" edge="1" parent="1" source="1sqJRC-_gy79cd_bisz6-10" target="1sqJRC-_gy79cd_bisz6-13">
          <mxGeometry relative="1" as="geometry" />
        </mxCell>
        <mxCell id="1sqJRC-_gy79cd_bisz6-10" value="add O to edge list(O)&lt;br&gt;add O&#39; to edge list(O&#39;)" style="rounded=0;whiteSpace=wrap;html=1;" vertex="1" parent="1">
          <mxGeometry x="260" y="610" width="185" height="70" as="geometry" />
        </mxCell>
        <mxCell id="1sqJRC-_gy79cd_bisz6-16" style="edgeStyle=orthogonalEdgeStyle;rounded=0;orthogonalLoop=1;jettySize=auto;html=1;exitX=0.5;exitY=1;exitDx=0;exitDy=0;" edge="1" parent="1" source="1sqJRC-_gy79cd_bisz6-13" target="1sqJRC-_gy79cd_bisz6-15">
          <mxGeometry relative="1" as="geometry" />
        </mxCell>
        <mxCell id="1sqJRC-_gy79cd_bisz6-17" value="Y" style="edgeLabel;html=1;align=center;verticalAlign=middle;resizable=0;points=[];" vertex="1" connectable="0" parent="1sqJRC-_gy79cd_bisz6-16">
          <mxGeometry x="-0.1" y="-2" relative="1" as="geometry">
            <mxPoint as="offset" />
          </mxGeometry>
        </mxCell>
        <mxCell id="1sqJRC-_gy79cd_bisz6-13" value="edge list modified ?" style="rhombus;whiteSpace=wrap;html=1;" vertex="1" parent="1">
          <mxGeometry x="291" y="710" width="123" height="100" as="geometry" />
        </mxCell>
        <mxCell id="1sqJRC-_gy79cd_bisz6-15" value="更新宏簇数量" style="rounded=0;whiteSpace=wrap;html=1;" vertex="1" parent="1">
          <mxGeometry x="260" y="850" width="185" height="70" as="geometry" />
        </mxCell>
      </root>
    </mxGraphModel>
  </diagram>
</mxfile>
